<?xml version="1.0" standalone="no"?>
<!DOCTYPE svg PUBLIC "-//W3C//DTD SVG 20010904//EN"
 "http://www.w3.org/TR/2001/REC-SVG-20010904/DTD/svg10.dtd">
<svg version="1.0" xmlns="http://www.w3.org/2000/svg"
 width="700.000000pt" height="700.000000pt" viewBox="0 0 700.000000 700.000000"
 preserveAspectRatio="xMidYMid meet">
<metadata>
Created by potrace 1.11, written by Peter Selinger 2001-2013
</metadata>
<g transform="translate(0.000000,700.000000) scale(0.100000,-0.100000)"
fill="#000000" stroke="none">
<path d="M3265 5746 c4 -45 10 -99 12 -121 3 -22 8 -626 10 -1342 4 -1252 3
-1303 -14 -1304 -20 -1 -752 -1 -1580 0 l-553 1 0 440 c0 412 -1 440 -17 441
-10 0 -253 1 -541 2 l-522 2 2 -445 3 -445 535 0 535 0 2 -415 c1 -228 2 -427
2 -443 l1 -27 538 2 537 3 -1 -442 c0 -304 3 -443 10 -446 19 -6 2930 0 2976
6 25 3 72 9 105 12 51 4 138 19 243 39 90 18 221 65 348 126 291 138 533 398
716 771 95 192 196 503 234 719 17 97 24 141 29 185 3 28 8 60 10 71 26 157
27 753 0 893 -1 9 -6 39 -9 66 -6 44 -25 153 -41 240 -41 217 -113 429 -233
685 -61 132 -196 316 -317 432 -185 179 -381 288 -595 332 -71 14 -92 17 -215
32 -27 4 -538 7 -1133 8 l-1084 2 7 -80z m1625 -761 c182 -24 254 -40 356 -81
95 -38 139 -67 211 -140 139 -142 249 -404 298 -711 3 -18 7 -45 9 -60 3 -16
7 -55 10 -88 4 -33 9 -85 11 -115 7 -63 7 -457 1 -510 -2 -19 -7 -69 -11 -110
-9 -102 -17 -160 -31 -235 -2 -11 -6 -32 -9 -46 -23 -128 -85 -310 -144 -427
-105 -208 -266 -313 -531 -347 -29 -4 -62 -9 -74 -11 -12 -3 -155 -7 -318 -9
l-298 -4 -1 27 c-1 36 -1 2820 0 2854 l1 28 238 -5 c130 -2 257 -7 282 -10z"/>
</g>
</svg>
