<?xml version="1.0" encoding="utf-8"?>
<!-- Generator: Adobe Illustrator 24.2.1, SVG Export Plug-In . SVG Version: 6.00 Build 0)  -->
<svg version="1.1" id="Ebene_1" xmlns="http://www.w3.org/2000/svg" xmlns:xlink="http://www.w3.org/1999/xlink" x="0px" y="0px"
	 viewBox="0 0 500 500" style="enable-background:new 0 0 500 500;" xml:space="preserve">
<style type="text/css">
	.st0{fill:#9BB8D7;}
	.st1{fill:#2061AE;}
	.st2{fill:#CEDBEB;}
	.st3{fill:#6298C4;}
</style>
<rect x="158.51" y="287.3" class="st0" width="76.52" height="63.37"/>
<path class="st1" d="M469.36,137.08c-8.25-14.78-19.47-27.56-32.91-36.92c-16.86-12.33-33.43-16.27-68.05-16.27H232.43
	c1.71,11.29,2.6,26.08,2.6,49.26V350.6h-76.89v63.37h74.29c0,0.07,0,0.07,0,0.15h108.84c39,0,56.91-2.97,78.31-12.33
	c45.02-20.65,74-82.54,74-156.98C493.65,204.54,485.4,166.79,469.36,137.08z M402.12,318.28c-10.48,25.33-25.41,32.24-67.01,32.24
	h-23.18v-207.5h14.41c25.41,0,40.27,2.45,52.53,8.4c21.92,10.48,34.99,46.66,34.99,95.84C413.93,275.04,410,300.37,402.12,318.28z"
	/>
<rect x="81.24" y="287.22" class="st2" width="77.04" height="63.37"/>
<rect x="4.35" y="224.07" class="st3" width="77.04" height="63.37"/>
</svg>
