<?xml version="1.0" encoding="utf-8"?>
<!-- Generator: Adobe Illustrator 25.0.0, SVG Export Plug-In . SVG Version: 6.00 Build 0)  -->
<svg version="1.1" id="Ebene_1" xmlns="http://www.w3.org/2000/svg" xmlns:xlink="http://www.w3.org/1999/xlink" x="0px" y="0px"
	 viewBox="0 0 36.4 36" style="enable-background:new 0 0 36.4 36;" xml:space="preserve">
<style type="text/css">
	.st0{fill:#181717;}
</style>
<path class="st0" d="M12.4,16.7L12.4,16.7c0.6,0,1.1,0.5,1.1,1.1l0,0l0,0c0,0.6-0.5,1.1-1.1,1.1l0,0l0,0c-0.6,0-1.1-0.5-1.1-1.1l0,0
	l0,0C11.3,17.1,11.7,16.7,12.4,16.7L12.4,16.7z"/>
<path class="st0" d="M12.4,22.8L12.4,22.8c0.6,0,1.1,0.5,1.1,1.1l0,0l0,0c0,0.6-0.5,1.1-1.1,1.1l0,0l0,0c-0.6,0-1.1-0.5-1.1-1.1l0,0
	l0,0C11.3,23.2,11.7,22.8,12.4,22.8L12.4,22.8z"/>
<path class="st0" d="M18.5,22.8L18.5,22.8c0.6,0,1,0.4,1,1v0.1l0,0c0.1,0.5-0.3,1-0.9,1.1h-0.1l0,0c-0.6,0-1.1-0.5-1.1-1.1l0,0l0,0
	C17.4,23.2,17.8,22.8,18.5,22.8L18.5,22.8z"/>
<path class="st0" d="M24.5,22.8L24.5,22.8c0.6,0,1.1,0.5,1.1,1.1l0,0l0,0c0,0.6-0.5,1.1-1.1,1.1l0,0l0,0c-0.6,0-1.1-0.5-1.1-1.1l0,0
	l0,0C23.4,23.2,23.8,22.8,24.5,22.8L24.5,22.8z"/>
<path class="st0" d="M30.5,22.8L30.5,22.8c0.6,0,1.1,0.5,1.1,1.1l0,0l0,0c0,0.6-0.5,1.1-1.1,1.1l0,0l0,0c-0.6,0-1.1-0.5-1.1-1.1l0,0
	l0,0C29.4,23.2,29.8,22.8,30.5,22.8L30.5,22.8z"/>
<path class="st0" d="M12.4,28.9L12.4,28.9c0.6,0,1.1,0.5,1.1,1.1l0,0l0,0c0,0.6-0.5,1.1-1.1,1.1l0,0l0,0c-0.6,0-1.1-0.5-1.1-1.1l0,0
	l0,0C11.3,29.3,11.7,28.9,12.4,28.9L12.4,28.9z"/>
<path class="st0" d="M6.3,28.9L6.3,28.9c0.6,0,1.1,0.5,1.1,1.1l0,0l0,0c0,0.6-0.5,1.1-1.1,1.1l0,0l0,0c-0.6-0.1-1-0.5-1-1.1l0,0
	C5.2,29.4,5.7,28.9,6.3,28.9z"/>
<path class="st0" d="M6.3,22.8L6.3,22.8c0.6,0,1.1,0.5,1.1,1.1l0,0l0,0c0,0.6-0.5,1.1-1.1,1.1l0,0l0,0c-0.6-0.1-1-0.5-1-1.1l0,0
	C5.2,23.3,5.7,22.8,6.3,22.8z"/>
<path class="st0" d="M18.5,28.9L18.5,28.9c0.6,0,1,0.4,1,1V30l0,0c0.1,0.5-0.3,1-0.9,1.1h-0.1l0,0c-0.6,0-1.1-0.5-1.1-1.1l0,0l0,0
	C17.4,29.3,17.8,28.9,18.5,28.9L18.5,28.9z"/>
<path class="st0" d="M24.5,28.9L24.5,28.9c0.6,0,1.1,0.5,1.1,1.1l0,0l0,0c0,0.6-0.5,1.1-1.1,1.1l0,0l0,0c-0.6,0-1.1-0.5-1.1-1.1l0,0
	l0,0C23.4,29.3,23.8,28.9,24.5,28.9L24.5,28.9z"/>
<path class="st0" d="M18.5,16.7L18.5,16.7c0.6,0,1,0.4,1,1v0.1l0,0c0.1,0.5-0.3,1-0.9,1.1h-0.1l0,0c-0.6,0-1.1-0.5-1.1-1.1l0,0l0,0
	C17.4,17.1,17.8,16.7,18.5,16.7L18.5,16.7z"/>
<path class="st0" d="M24.5,16.7L24.5,16.7c0.6,0,1.1,0.5,1.1,1.1l0,0l0,0c0,0.6-0.5,1.1-1.1,1.1l0,0l0,0c-0.6,0-1.1-0.5-1.1-1.1l0,0
	l0,0C23.4,17.1,23.8,16.7,24.5,16.7L24.5,16.7z"/>
<path class="st0" d="M30.5,16.7L30.5,16.7c0.6,0,1.1,0.5,1.1,1.1l0,0l0,0c0,0.6-0.5,1.1-1.1,1.1l0,0l0,0c-0.6-0.1-1-0.5-1-1.1l0,0
	C29.4,17.2,29.9,16.7,30.5,16.7z"/>
<path class="st0" d="M34,3.3h-3.6c-0.4,0-0.8,0.4-0.8,0.8c0.1,0.4,0.4,0.7,0.8,0.7H34c0.6,0,1.1,0.5,1.1,1.1v4.9H2V5.9
	c0-0.6,0.5-1.1,1.1-1.1h4.4V7c0.1,0.4,0.4,0.7,0.8,0.7C8.6,7.7,9,7.3,9,7V1.2c0-0.4-0.3-0.8-0.6-0.8H8.3c-0.4,0-0.8,0.4-0.8,0.8l0,0
	v2.1H3.1C1.6,3.3,0.4,4.5,0.5,6v28.1c0,1.4,1.2,2.6,2.6,2.6H34c1.4,0,2.6-1.2,2.6-2.6V5.9C36.6,4.4,35.4,3.3,34,3.3z M34,35.2H3.1
	c-0.6,0-1.1-0.5-1.1-1.1V12.4h33.1v21.7C35.1,34.7,34.6,35.2,34,35.2z"/>
<path class="st0" d="M11.5,4.9h14.6V7c0,0.4,0.4,0.8,0.8,0.8c0.4-0.1,0.7-0.4,0.7-0.8V1.2c0.1-0.4-0.2-0.7-0.6-0.8h-0.1
	c-0.4,0-0.8,0.4-0.8,0.8v2.1H11.5c-0.4,0-0.8,0.4-0.8,0.8S11,4.8,11.5,4.9z"/>
</svg>
