<?xml version="1.0" encoding="utf-8"?>
<!-- Generator: Adobe Illustrator 24.2.2, SVG Export Plug-In . SVG Version: 6.00 Build 0)  -->
<svg version="1.1" id="Ebene_1" xmlns="http://www.w3.org/2000/svg" xmlns:xlink="http://www.w3.org/1999/xlink" x="0px" y="0px"
	 viewBox="0 0 30.2 36" style="enable-background:new 0 0 30.2 36;" xml:space="preserve">
<style type="text/css">
	.st0{fill:#000000;}
</style>
<path class="st0" d="M7.6,14.9l0-4.9c0-3.4,3.8-7.1,7.2-7.1c3.4,0,7.2,3.7,7.2,7.1l0,4.9L7.6,14.9z M25.5,14.9h-1l0-4.9
	c0-5.3-4.4-9.6-9.8-9.6C9.4,0.4,5,4.7,5,10l0,4.9H4.6c-1.9,0-3.4,1.5-3.4,3.3v14.5c0,1.8,1.5,3.3,3.4,3.3l20.9,0
	c1.9,0,3.4-1.5,3.4-3.3V18.2C28.9,16.4,27.4,14.9,25.5,14.9L25.5,14.9z"/>
</svg>
