<svg xmlns="http://www.w3.org/2000/svg" viewBox="0 0 30.2 36">
  <defs>
    <style>.a {
      fill: #2061ae;
      opacity: 0;
    }

    .st0 {
      fill: #000000;
    }</style>
  </defs>
  <rect class="a" x="-23.4" y="-15.8" width="69.4" height="1648"/>
  <path class="st0"
        d="M28.1,27.4A15,15,0,0,0,22.6,22a.9.9,0,0,0-1.1.2A5.7,5.7,0,0,1,20,23.4a10.6,10.6,0,0,1-9.8,0,7.9,7.9,0,0,1-1.5-1.2A.9.9,0,0,0,7.6,22,15.1,15.1,0,0,0,0,35.1a.9.9,0,0,0,.9.9H29.4a.9.9,0,0,0,.8-.9A15.1,15.1,0,0,0,28.1,27.4ZM1.7,34.3A13.6,13.6,0,0,1,7.9,23.8a11.7,11.7,0,0,0,14.4,0,13.6,13.6,0,0,1,6.2,10.5Z"/>
  <path class="st0"
        d="M6.4,11.2h.3a8.8,8.8,0,0,0-.2,1.7c0,5.1,3.8,9.2,8.6,9.2s8.5-4.1,8.5-9.2a8.8,8.8,0,0,0-.2-1.7,1.3,1.3,0,0,0,1.1-1.3,1.3,1.3,0,0,0-1.2-1.1H23a8.3,8.3,0,0,0-4.5-7.3l-.7,3.8c0,.4-.3.6-.7.6a.8.8,0,0,1-.5-.8L17.4.8A1.6,1.6,0,0,0,16,0H13.7a1.6,1.6,0,0,0-1.4.8l.8,4.3a.8.8,0,0,1-.5.8h-.1a.6.6,0,0,1-.6-.6l-.7-3.8A8.1,8.1,0,0,0,6.7,8.8H6.4A1.2,1.2,0,0,0,5.2,10a1.2,1.2,0,0,0,1.2,1.2Zm15.3,1.7c0,4.1-3,7.3-6.6,7.3S8.4,17,8.4,12.9a4.7,4.7,0,0,1,.3-1.7H21.4a4.7,4.7,0,0,1,.3,1.7Z"/>
</svg>
