<?xml version="1.0" encoding="utf-8"?>
<!-- Generator: Adobe Illustrator 25.0.0, SVG Export Plug-In . SVG Version: 6.00 Build 0)  -->
<svg version="1.1" id="Ebene_1" xmlns="http://www.w3.org/2000/svg" xmlns:xlink="http://www.w3.org/1999/xlink" x="0px" y="0px"
	 viewBox="0 0 36.4 36" style="enable-background:new 0 0 36.4 36;" xml:space="preserve">
<style type="text/css">
	.st0{fill:#181717;}
</style>
<g id="Gruppe_1608_2_" transform="translate(-1073.58 336.534)">
	<path id="Pfad_735-3_2_" class="st0" d="M1078.6-317.9l13,8.8c0,0,0.1,0.1,0.2,0.1l0,0c0,0,0,0,0.1,0h0.1c0,0,0,0,0.1,0
		s0.2,0,0.2,0s0,0,0.1,0h0.1c0,0,0,0,0.1,0l0,0c0.1,0,0.1,0,0.2-0.1l13-8.8c0.4-0.2,0.5-0.7,0.4-1.1c-0.2-0.4-0.7-0.5-1.1-0.4
		c0,0-0.1,0-0.1,0.1l-12.2,8.2l-0.1-24.6c0-0.4-0.4-0.8-0.8-0.8s-0.8,0.4-0.8,0.8v0.1l0.1,24.1l-11.6-7.8c-0.4-0.3-0.8-0.2-1.1,0.2
		C1078.1-318.7,1078.2-318.1,1078.6-317.9C1078.5-317.9,1078.6-317.9,1078.6-317.9L1078.6-317.9z"/>
	<path class="st0" d="M1108.9-302.2H1075c-0.4,0-0.8-0.4-0.8-0.7s0.4-0.7,0.8-0.7h33.9c0.4,0,0.8,0.4,0.8,0.7
		S1109.3-302.2,1108.9-302.2z"/>
</g>
</svg>
