<?xml version="1.0" encoding="utf-8"?>
<!-- Generator: Adobe Illustrator 25.0.0, SVG Export Plug-In . SVG Version: 6.00 Build 0)  -->
<svg version="1.1" id="Ebene_1" xmlns="http://www.w3.org/2000/svg" xmlns:xlink="http://www.w3.org/1999/xlink" x="0px" y="0px"
	 viewBox="0 0 36.4 36" style="enable-background:new 0 0 36.4 36;" xml:space="preserve">
<style type="text/css">
	.st0{fill:#181717;}
  button:hover .st0 {fill:#2061AE}
</style>
<g>
	<path class="st0" d="M36.4,16.8c0,3.3-0.7,5.9-2,7.9s-3.1,3-5.3,3c-1.3,0-2.3-0.4-3.1-1.2c-0.8-0.8-1.3-1.8-1.4-3.2h-0.1
		c-0.6,1.4-1.5,2.5-2.7,3.3c-1.2,0.7-2.5,1.1-4.1,1.1c-2.1,0-3.8-0.7-4.9-2.1c-1.2-1.4-1.8-3.3-1.8-5.8c0-2.9,0.9-5.3,2.6-7.1
		c1.7-1.9,4-2.8,6.8-2.8c2,0,4,0.3,6.2,0.9l-0.5,10v0.6c0,1.5,0.3,2.6,0.8,3.4s1.3,1.1,2.5,1.1c1.5,0,2.7-0.8,3.6-2.5
		c0.9-1.7,1.4-3.9,1.4-6.6c0-2.8-0.6-5.2-1.7-7.3c-1.1-2.1-2.8-3.7-4.9-4.9c-2.1-1.1-4.5-1.7-7.2-1.7c-3.3,0-6.2,0.7-8.8,2.1
		C9.3,6.4,7.3,8.5,6,11.1c-1.4,2.6-2,5.6-2,9c0,4.6,1.2,8.2,3.6,10.7s5.8,3.8,10.2,3.8c1.3,0,2.7-0.1,4.1-0.4c1.4-0.3,3-0.8,5-1.5
		V35C24,36.2,21,36.7,18,36.7c-5,0-8.9-1.4-11.8-4.3C3.4,29.5,2,25.5,2,20.4c0-3.7,0.8-7,2.3-9.9C6,7.4,8.2,5.1,11,3.5
		c2.9-1.6,6.1-2.4,9.7-2.4c3.1,0,5.8,0.6,8.2,1.9s4.2,3.1,5.5,5.5C35.8,10.9,36.4,13.6,36.4,16.8z M13.3,19.7c0,2.1,0.4,3.6,1.2,4.6
		s2,1.6,3.8,1.6c3.7,0,5.6-2.5,5.9-7.5l0.3-6.3c-1.1-0.4-2.5-0.6-4.2-0.6c-2.1,0-3.9,0.7-5.1,2.2C13.9,15.2,13.3,17.2,13.3,19.7z"/>
</g>
</svg>
