<svg xmlns="http://www.w3.org/2000/svg" viewBox="0 0 36.3 36.3">
  <defs>
    <style>.a {
        fill: #2061ae;
        opacity: 0;
    }

    .b {
        fill: #2061ae;
    }</style>
  </defs>
  <rect class="a" x="-20.4" y="-529.5" width="69.4" height="1648"/>
  <path class="b"
        d="M35.9,34.1l-9.7-9.7A14.8,14.8,0,0,0,3.5,5.3,14.8,14.8,0,0,0,5.3,26.2a14.7,14.7,0,0,0,19.1,0L34,35.9a1.4,1.4,0,0,0,1.9,0,1.3,1.3,0,0,0,0-1.8Zm-21-6.3A13,13,0,1,1,27.8,14.9h0A12.9,12.9,0,0,1,14.9,27.8h0Z"/>
</svg>
