<?xml version="1.0" encoding="utf-8"?>
<!-- Generator: Adobe Illustrator 24.2.2, SVG Export Plug-In . SVG Version: 6.00 Build 0)  -->
<svg version="1.1" id="Ebene_1" xmlns="http://www.w3.org/2000/svg" xmlns:xlink="http://www.w3.org/1999/xlink" x="0px" y="0px"
	 viewBox="0 0 30.2 36" style="enable-background:new 0 0 30.2 36;" xml:space="preserve">
<style type="text/css">
	.st0{fill-rule:evenodd;clip-rule:evenodd;fill:#000000;}
</style>
<path class="st0" d="M28.4,0H1.9C1,0,0.2,0.8,0.2,1.8v3.5c0,0,0,0.1,0,0.1c0,0,0-0.1,0-0.1c0,0.1,0,0.2,0,0.3c0.1,0.6,0.4,1,0.9,1.3
	c2,2.8,6.8,8.7,9,11.3c0.1,0.1,0.7,0.7,0.7,1.4c0,1.9,0,14.9,0,14.9c0,0.3,0.2,0.6,0.4,0.8c0.3,0.2,0.6,0.2,0.9,0l7.1-4
	c0.3-0.2,0.5-0.5,0.5-0.8V19.3c0-0.4,0.5-0.9,0.5-1c2.2-2.5,7.1-8.6,9.1-11.5c0.5-0.3,0.9-0.9,0.9-1.5V1.8C30.2,0.8,29.4,0,28.4,0z
	 M18.2,17.8C18.1,17.9,18,18,18,18.1c0,0,0,0,0,0l0,0c-0.1,0.1-0.1,0.3-0.1,0.5V30l-5.3,3V18.5c0-0.3-0.2-0.6-0.4-0.7
	C10.7,16.3,6,10.5,3.4,7.1h23.5C24.4,10.5,19.5,16.4,18.2,17.8z M28.4,4.9c-0.1,0.1-0.1,0.2-0.2,0.4H2.1C2.1,5.2,2,5.1,1.9,5V1.8
	h26.5V4.9z"/>
</svg>
