<?xml version="1.0" encoding="utf-8"?>
<!-- Generator: Adobe Illustrator 24.2.2, SVG Export Plug-In . SVG Version: 6.00 Build 0)  -->
<svg version="1.1" id="Ebene_1" xmlns="http://www.w3.org/2000/svg" xmlns:xlink="http://www.w3.org/1999/xlink" x="0px" y="0px"
	 viewBox="0 0 36.4 36" style="enable-background:new 0 0 36.4 36;" xml:space="preserve">
<style type="text/css">
	.st0{fill:#000000;}
	.st1{fill:none;}
</style>
<path class="st0" d="M31.8,6.3L31.8,6.3c-3.2-3.7-7.6-5.9-12.4-6.2l-0.1,0c-0.1-0.1-0.3-0.1-0.5,0c-0.2,0-0.3,0-0.5,0l-0.1,0
	c-4.9,0-9.5,2-12.9,5.6C5.2,5.7,5.1,5.8,5,5.9C5,5.9,4.9,6,4.9,6.1C2,9.4,0.4,13.5,0.4,17.9c0,4.5,1.7,8.8,4.8,12.1
	c0,0,0,0.1,0.1,0.1c0.1,0.1,0.1,0.1,0.2,0.2c3.4,3.5,7.9,5.4,12.7,5.4c0.1,0,0.1,0,0.2,0c0,0,0.1,0,0.1,0l0.1,0c0,0,0.1,0,0.1,0
	l0.1,0c0.1,0,0.2,0,0.3-0.1C28.6,35.2,36,27.4,36,17.9C36,13.7,34.5,9.6,31.8,6.3z M19.4,17.2v-6.8c2.2,0,4.4-0.3,6.3-0.7
	c1.1,2.4,1.7,4.9,1.8,7.5H19.4z M29.9,6.6c-0.9,0.5-2,0.9-3.3,1.3c-1.2-2.2-2.8-4.1-4.7-5.8C24.9,2.8,27.7,4.3,29.9,6.6z M34.4,18.7
	c-0.2,3.5-1.5,6.9-3.8,9.6c-1-0.5-2.2-1-3.6-1.4c1.3-2.6,1.9-5.3,2.1-8.2H34.4z M27.6,18.7c-0.1,2.7-0.8,5.3-2.1,7.8
	c-1.9-0.4-4-0.6-6.1-0.7v-7.1H27.6z M26.3,28.3c1.2,0.3,2.3,0.7,3.2,1.2c-2.2,2.1-4.9,3.6-7.8,4.2C23.6,32.2,25.1,30.4,26.3,28.3z
	 M34.4,17.2h-5.3c-0.1-2.7-0.7-5.4-1.9-7.9c1.4-0.4,2.6-0.9,3.6-1.5C33.1,10.4,34.3,13.7,34.4,17.2z M19.4,2.1
	c2.3,1.6,4.2,3.7,5.6,6.1c-1.7,0.4-3.6,0.6-5.6,0.6V2.1z M19.4,33.6v-6.2c1.8,0,3.7,0.2,5.3,0.5C23.4,30.1,21.5,32.1,19.4,33.6z
	 M17.9,27.4v6c-2.1-1.5-3.8-3.4-5.1-5.5C14.4,27.6,16.1,27.4,17.9,27.4z M11.2,28.2c1.3,2.2,2.9,4.1,4.9,5.7
	c-3.3-0.5-6.4-1.9-8.9-4.2C8.2,29.2,9.6,28.6,11.2,28.2z M10,18.7h7.9v7.1c-2,0-4.1,0.3-5.9,0.6C10.8,24,10.1,21.4,10,18.7z
	 M8.4,18.7c0.1,2.8,0.8,5.5,2,8.1c-1.7,0.5-3.2,1.1-4.4,1.8c-2.4-2.8-3.9-6.2-4-9.9H8.4z M17.9,2.3v6.5c-1.8,0-3.7-0.2-5.3-0.6
	C13.8,6,15.7,3.9,17.9,2.3z M17.9,10.4v6.8H9.9c0.1-2.6,0.7-5.1,1.8-7.5C13.6,10.1,15.7,10.3,17.9,10.4z M10.9,7.9
	c-1.6-0.4-3-1-4.1-1.6c2.5-2.4,5.6-4,9-4.5C13.9,3.5,12.2,5.6,10.9,7.9z M10.2,9.3c-1.1,2.5-1.7,5.1-1.8,7.8H2
	c0.2-3.6,1.5-7,3.8-9.7C6.9,8.2,8.4,8.8,10.2,9.3z"/>
<path class="st1" d="M49,1.8c-2.4,1.7-4.4,4-5.8,6.5C45,8.7,47,8.9,49,9V1.8z"/>
</svg>
