<?xml version="1.0" encoding="utf-8"?>
<!-- Generator: Adobe Illustrator 24.2.2, SVG Export Plug-In . SVG Version: 6.00 Build 0)  -->
<svg version="1.1" id="Ebene_1" xmlns="http://www.w3.org/2000/svg" xmlns:xlink="http://www.w3.org/1999/xlink" x="0px" y="0px"
	 viewBox="0 0 36.3 36.3" style="enable-background:new 0 0 36.3 36.3;" xml:space="preserve">
<style type="text/css">
	.st0{fill: #000000;}
</style>
<path class="st0" d="M3,36.2c-1,0-1.9-0.8-1.9-1.9S2,32.4,3,32.4h20.5c5.4,0,9.8-4.4,9.8-9.8s-4.4-9.8-9.8-9.8H11.8
	c-0.4,0-0.8,0.3-1,0.7c-0.1,0.4,0,0.9,0.4,1.2l4.7,3.5c0.4,0.3,0.7,0.7,0.7,1.2c0.1,0.5-0.1,1-0.4,1.4c-0.4,0.5-0.9,0.8-1.5,0.8
	c-0.4,0-0.8-0.1-1.1-0.4L2,12.4c0,0-0.1-0.1-0.2-0.2c-0.1-0.1-0.1-0.1-0.2-0.2c0,0-0.1-0.1-0.1-0.1l0-0.1c-0.1-0.1-0.1-0.1-0.1-0.2
	c0-0.1-0.1-0.2-0.1-0.3l0-0.1c0-0.1,0-0.1,0-0.2c0,0,0-0.1,0-0.1l0-0.1c0,0,0-0.1,0-0.1c0,0,0-0.1,0-0.1l0-0.1c0,0,0-0.1,0-0.1
	c0,0,0-0.1,0-0.1l0-0.1c0-0.1,0.1-0.2,0.1-0.2c0-0.1,0.1-0.1,0.1-0.2c0,0,0-0.1,0.1-0.1c0,0,0,0,0.1-0.1c0.1-0.1,0.1-0.1,0.2-0.2
	C1.9,9.3,1.9,9.3,2,9.2l11.6-8.7c0.3-0.2,0.7-0.4,1.1-0.4c0.6,0,1.2,0.3,1.5,0.8c0.3,0.4,0.4,0.9,0.4,1.4c-0.1,0.5-0.3,0.9-0.7,1.2
	l-4.7,3.5c-0.4,0.3-0.5,0.7-0.4,1.2c0.1,0.4,0.5,0.7,1,0.7h11.7c7.5,0,13.6,6.1,13.6,13.6c0,7.5-6.1,13.6-13.6,13.6H3z"/>
</svg>
