<?xml version="1.0" encoding="utf-8"?>
<!-- Generator: Adobe Illustrator 25.0.0, SVG Export Plug-In . SVG Version: 6.00 Build 0)  -->
<svg version="1.1" id="Ebene_1" xmlns="http://www.w3.org/2000/svg" xmlns:xlink="http://www.w3.org/1999/xlink" x="0px" y="0px"
	 viewBox="0 0 36.4 36" style="enable-background:new 0 0 36.4 36;" xml:space="preserve">
<style type="text/css">
	.st0{fill:#181717;}
</style>
<g>
	<path class="st0" d="M26.5,3.5c-0.1-0.1-0.3-0.1-0.4-0.1l0,0c-0.4,0-0.8,0.3-0.8,0.8v0.1c0,0.2,0.1,0.4,0.3,0.5
		c2.3,1.7,4,4.2,4.7,7c0.2,1,0.4,2,0.4,3c0,0.6,0,1.2-0.1,1.8c-0.1,0.4,0.2,0.8,0.6,0.8h0.1c0.4,0,0.7-0.3,0.7-0.6
		c0.1-0.7,0.1-1.3,0.1-2c0-2.2-0.5-4.4-1.5-6.4C29.6,6.4,28.2,4.8,26.5,3.5z"/>
	<path class="st0" d="M35.9,10c-0.3-1.3-0.8-2.6-1.4-3.8c-0.6-1.2-1.4-2.3-2.2-3.3c-0.9-1-1.8-1.9-2.9-2.7C29.2,0.1,29,0,28.8,0l0,0
		h-0.1c-0.2,0-0.4,0.1-0.5,0.3C28,0.5,28,0.7,28,0.9s0.2,0.4,0.3,0.5c2,1.5,3.6,3.4,4.7,5.6c0.6,1.1,1,2.3,1.3,3.4
		c0.5,2,0.6,4,0.3,6.1c0,0.2,0,0.4,0.2,0.6l0,0c0.1,0.2,0.3,0.3,0.6,0.3h0.1c0.4,0,0.8-0.3,0.8-0.7c0.1-0.8,0.2-1.7,0.2-2.5
		C36.4,12.8,36.2,11.4,35.9,10z"/>
	<path class="st0" d="M5.1,17.4L5.1,17.4c0.5-0.1,0.8-0.4,0.7-0.9c-0.1-0.6-0.1-1.2-0.1-1.8c0-1,0.1-2,0.4-3c0.2-0.9,0.6-1.9,1-2.7
		C8,7.3,9.3,5.8,10.8,4.7c0.2-0.1,0.3-0.3,0.3-0.5c0-0.2,0-0.4-0.1-0.6c-0.1-0.2-0.3-0.3-0.5-0.3h-0.1l0,0c-0.2,0-0.3,0.1-0.4,0.1
		C6.5,6,4.3,10.2,4.3,14.6c0,0.7,0,1.3,0.1,2C4.4,17.1,4.8,17.4,5.1,17.4z"/>
	<path class="st0" d="M8.1,1.5L8.1,1.5C8.3,1.4,8.4,1.2,8.4,1s0-0.4-0.1-0.6C8.1,0.2,7.9,0,7.7,0H7.6C7.4,0,7.2,0.1,7.1,0.2
		C6,1,5.1,1.9,4.2,2.9c-3.2,3.8-4.7,8.9-4,13.8c0.1,0.4,0.4,0.7,0.8,0.7h0.1c0.4-0.1,0.8-0.5,0.7-0.9c-0.3-2-0.2-4.1,0.3-6.1
		C2.4,9.2,2.9,8.1,3.4,7C4.5,4.8,6.1,2.9,8.1,1.5z"/>
	<path class="st0" d="M31.4,26.6c-0.4-0.9-0.9-1.8-1.6-2.5c-0.6-0.7-1-1.6-1.3-2.8c-0.2-1.1-0.2-2.3-0.2-3.4V17c0-0.1,0-0.1,0-0.2
		v-0.2c0-1.1,0.1-3.3-0.8-5.6c-0.5-1.3-1.2-2.4-2.1-3.3S23.2,6,21.9,5.5h-0.1V5.4c0-0.1,0-0.3-0.1-0.4c-0.2-0.8-0.5-1.4-1-1.9
		c-0.6-0.7-1.5-1-2.6-1c-1,0-1.9,0.3-2.5,1c-0.5,0.5-0.8,1.1-1,1.9c0,0.1,0,0.3-0.1,0.4v0.1h-0.1C13.2,6.1,12,6.8,11,7.8
		c-0.9,0.9-1.6,2-2,3.3c-0.8,2.3-0.8,4.5-0.8,5.6c0,0.2,0,0.3,0,0.4c0,0.3,0,0.6,0,0.9c0,1.1,0,2.3-0.2,3.4c-0.2,1.2-0.6,2-1.3,2.8
		C6,24.9,5.4,25.7,5,26.6c-0.3,0.6-0.5,1.3-0.6,2c-0.1,0.4-0.1,0.8-0.1,1.2c0,0.9,0.7,1.8,1.7,1.8h0.1h6.8v0.1
		c0.4,1.2,1.1,2.2,1.8,2.9c1,0.9,2.2,1.4,3.4,1.4s2.4-0.5,3.4-1.4c0.8-0.8,1.4-1.8,1.8-2.9v-0.1h6.9l0,0c0.5,0,0.9-0.2,1.2-0.5
		c0.3-0.3,0.5-0.8,0.5-1.3c0-0.4,0-0.8-0.1-1.1C31.9,28,31.7,27.3,31.4,26.6z M21.9,31.6l-0.1,0.2l0,0c-0.3,0.7-0.7,1.2-1.2,1.7
		c-0.7,0.7-1.5,1-2.4,1c-0.8,0-1.7-0.4-2.4-1c-0.5-0.5-0.9-1.1-1.2-1.7l-0.1-0.2C14.5,31.6,21.9,31.6,21.9,31.6z M9.7,16.6
		c0-1,0-3,0.7-5c0.4-1.1,1-2,1.7-2.7c0.9-0.9,2.1-1.6,3.5-2l0.5-0.2V6.1c0-0.1,0-1.2,0.7-1.9c0.4-0.4,0.8-0.5,1.5-0.5l0,0
		c0.6,0,1.1,0.2,1.5,0.5c0.7,0.7,0.7,1.8,0.7,1.9v0.6L21,6.9c1.4,0.4,2.6,1.1,3.5,2c0.7,0.7,1.3,1.7,1.7,2.7c0.7,2,0.7,4,0.7,5v0.2
		c0,0.1,0,0.2,0,0.3V18c0,2.4,0.1,5.1,1.9,7.1c1.3,1.4,1.7,3,1.8,3.7c0,0.3,0.1,0.7,0.1,1c0,0.1,0,0.1-0.1,0.2c0,0-0.1,0.1-0.2,0.1
		H6.2c-0.1,0-0.1,0-0.2-0.1c0,0-0.1-0.1-0.1-0.2c0-0.3,0-0.7,0.1-1c0.1-0.8,0.5-2.3,1.8-3.7c1.8-2,1.9-4.7,1.9-7.1
		c0-0.3,0-0.6,0-0.9C9.7,16.9,9.7,16.8,9.7,16.6z"/>
</g>
</svg>
